<svg width="808" height="378" viewBox="0 0 808 378" fill="none" xmlns="http://www.w3.org/2000/svg">
<g clip-path="url(#clip0_1_79)">
<path fill-rule="evenodd" clip-rule="evenodd" d="M318.36 277.505C263.352 279.902 97.6079 266.272 188.438 0.0189972C297.288 29.515 349.428 70.493 370.715 111.861C333.715 141.508 314.78 180.897 336.707 232.814C294.897 186.062 250.827 116.666 226.858 72.189C241.941 128.593 283.794 223.742 318.36 277.505Z" fill="#8B6514"/>
<path fill-rule="evenodd" clip-rule="evenodd" d="M379.394 271.25C355.614 241.662 292.568 140.561 483.242 81.673C548.168 252.241 454.625 277.331 409.13 279.975C414.792 240.632 426.51 202.849 445.714 167.743C417.939 198.561 395.677 233.187 379.394 271.25Z" fill="#8B6514"/>
<path d="M1.38501 369.693V368.263L4.38501 367.123C6.38501 366.363 7.64834 365.433 8.17501 364.333C8.70168 363.24 8.96501 361.74 8.96501 359.833V285.183C8.96501 283.276 8.67834 281.75 8.10501 280.603C7.53168 279.463 6.29168 278.56 4.38501 277.893L1.38501 276.743V275.313H37.845V276.743L35.275 277.893C33.4617 278.56 32.2217 279.49 31.555 280.683C30.8883 281.87 30.555 283.416 30.555 285.323V366.833H52.575C56.1017 366.833 58.6983 365.976 60.365 364.263C62.0383 362.55 63.635 360.07 65.155 356.823L70.735 344.813H72.165L70.875 369.693H1.38501Z" fill="white"/>
<path d="M99.195 371.843C93.6616 371.843 89.015 370.27 85.255 367.123C81.4883 363.976 79.605 359.446 79.605 353.533C79.605 349.053 81.8916 344.933 86.465 341.173C91.045 337.406 98.2416 334.57 108.055 332.663C109.582 332.376 111.298 332.066 113.205 331.733C115.112 331.4 117.115 331.04 119.215 330.653V319.363C119.215 312.876 118.428 308.323 116.855 305.703C115.282 303.083 112.825 301.773 109.485 301.773C107.198 301.773 105.388 302.513 104.055 303.993C102.722 305.466 101.865 308.016 101.485 311.643L101.195 313.213C101.002 317.313 100.002 320.316 98.195 322.223C96.3816 324.13 94.1416 325.083 91.475 325.083C88.995 325.083 86.945 324.32 85.325 322.793C83.705 321.266 82.895 319.216 82.895 316.643C82.895 312.736 84.2516 309.446 86.965 306.773C89.685 304.106 93.285 302.106 97.765 300.773C102.245 299.44 107.105 298.773 112.345 298.773C120.832 298.773 127.388 300.846 132.015 304.993C136.635 309.14 138.945 315.883 138.945 325.223V356.823C138.945 361.116 140.948 363.263 144.955 363.263H148.095L149.385 364.403C147.572 366.69 145.595 368.453 143.455 369.693C141.308 370.933 138.282 371.553 134.375 371.553C130.175 371.553 126.862 370.576 124.435 368.623C122.002 366.67 120.405 364.073 119.645 360.833C116.785 363.88 113.852 366.476 110.845 368.623C107.845 370.77 103.962 371.843 99.195 371.843ZM107.915 363.123C109.822 363.123 111.608 362.67 113.275 361.763C114.948 360.856 116.928 359.45 119.215 357.543V333.513L116.355 334.093C115.402 334.28 114.305 334.47 113.065 334.663C108.678 335.803 105.175 337.733 102.555 340.453C99.935 343.173 98.625 346.82 98.625 351.393C98.625 355.3 99.5283 358.23 101.335 360.183C103.148 362.143 105.342 363.123 107.915 363.123Z" fill="white"/>
<path d="M199.575 372.273C190.328 372.273 181.965 370.39 174.485 366.623C166.998 362.856 161.062 357.256 156.675 349.823C152.295 342.383 150.105 333.276 150.105 322.503C150.105 314.31 151.438 307.113 154.105 300.913C156.772 294.72 160.418 289.523 165.045 285.323C169.672 281.13 175.012 277.986 181.065 275.893C187.118 273.793 193.528 272.743 200.295 272.743C205.728 272.743 210.732 273.363 215.305 274.603C219.885 275.843 224.175 277.56 228.175 279.753L228.755 297.343H227.325L220.175 285.903C219.222 284.09 218.172 282.443 217.025 280.963C215.878 279.49 214.448 278.37 212.735 277.603C211.308 276.936 209.902 276.436 208.515 276.103C207.135 275.77 205.395 275.603 203.295 275.603C197.768 275.603 192.742 277.08 188.215 280.033C183.682 282.993 180.058 287.88 177.345 294.693C174.625 301.506 173.265 310.826 173.265 322.653C173.265 334.38 174.552 343.65 177.125 350.463C179.698 357.276 183.202 362.14 187.635 365.053C192.068 367.96 197.052 369.413 202.585 369.413C205.632 369.413 208.062 369.196 209.875 368.763C211.688 368.336 213.498 367.693 215.305 366.833C217.118 366.073 218.502 364.953 219.455 363.473C220.408 362 221.268 360.403 222.035 358.683L228.325 344.673H229.755L229.325 365.123C225.318 367.216 220.838 368.933 215.885 370.273C210.925 371.606 205.488 372.273 199.575 372.273Z" fill="white"/>
<path d="M257.205 371.843C251.678 371.843 247.032 370.27 243.265 367.123C239.498 363.976 237.615 359.446 237.615 353.533C237.615 349.053 239.905 344.933 244.485 341.173C249.058 337.406 256.255 334.57 266.075 332.663C267.602 332.376 269.318 332.066 271.225 331.733C273.132 331.4 275.132 331.04 277.225 330.653V319.363C277.225 312.876 276.438 308.323 274.865 305.703C273.292 303.083 270.838 301.773 267.505 301.773C265.218 301.773 263.408 302.513 262.075 303.993C260.735 305.466 259.875 308.016 259.495 311.643L259.215 313.213C259.022 317.313 258.018 320.316 256.205 322.223C254.398 324.13 252.158 325.083 249.485 325.083C247.005 325.083 244.955 324.32 243.335 322.793C241.715 321.266 240.905 319.216 240.905 316.643C240.905 312.736 242.265 309.446 244.985 306.773C247.698 304.106 251.295 302.106 255.775 300.773C260.255 299.44 265.118 298.773 270.365 298.773C278.852 298.773 285.405 300.846 290.025 304.993C294.652 309.14 296.965 315.883 296.965 325.223V356.823C296.965 361.116 298.965 363.263 302.965 363.263H306.115L307.405 364.403C305.592 366.69 303.612 368.453 301.465 369.693C299.318 370.933 296.292 371.553 292.385 371.553C288.192 371.553 284.878 370.576 282.445 368.623C280.018 366.67 278.422 364.073 277.655 360.833C274.795 363.88 271.865 366.476 268.865 368.623C265.858 370.77 261.972 371.843 257.205 371.843ZM265.935 363.123C267.842 363.123 269.628 362.67 271.295 361.763C272.962 360.856 274.938 359.45 277.225 357.543V333.513L274.365 334.093C273.412 334.28 272.315 334.47 271.075 334.663C266.695 335.803 263.192 337.733 260.565 340.453C257.945 343.173 256.635 346.82 256.635 351.393C256.635 355.3 257.542 358.23 259.355 360.183C261.168 362.143 263.362 363.123 265.935 363.123Z" fill="white"/>
<path d="M335.145 371.843C330.472 371.843 326.275 371.293 322.555 370.193C318.842 369.1 315.412 367.743 312.265 366.123L312.405 349.103H313.835L318.695 357.683C320.795 361.496 323.108 364.333 325.635 366.193C328.162 368.053 331.378 368.983 335.285 368.983C339.865 368.983 343.558 367.956 346.365 365.903C349.178 363.856 350.585 361.116 350.585 357.683C350.585 354.536 349.585 351.963 347.585 349.963C345.585 347.963 341.868 346.153 336.435 344.533L330.425 342.673C324.612 340.953 320.035 338.283 316.695 334.663C313.362 331.036 311.695 326.603 311.695 321.363C311.695 315.07 314.172 309.73 319.125 305.343C324.085 300.963 331.188 298.773 340.435 298.773C344.155 298.773 347.658 299.176 350.945 299.983C354.232 300.796 357.402 302.013 360.455 303.633L359.595 319.073H358.165L353.165 310.213C351.352 307.066 349.562 304.85 347.795 303.563C346.035 302.276 343.392 301.633 339.865 301.633C336.625 301.633 333.575 302.536 330.715 304.343C327.855 306.156 326.425 308.73 326.425 312.063C326.425 315.31 327.638 317.886 330.065 319.793C332.498 321.7 336.098 323.463 340.865 325.083L347.295 326.943C354.162 329.036 359.072 331.92 362.025 335.593C364.985 339.26 366.465 343.67 366.465 348.823C366.465 355.776 363.722 361.353 358.235 365.553C352.755 369.746 345.058 371.843 335.145 371.843Z" fill="white"/>
<path d="M392.775 371.843C387.242 371.843 382.592 370.27 378.825 367.123C375.065 363.976 373.185 359.446 373.185 353.533C373.185 349.053 375.472 344.933 380.045 341.173C384.618 337.406 391.815 334.57 401.635 332.663C403.162 332.376 404.878 332.066 406.785 331.733C408.692 331.4 410.695 331.04 412.795 330.653V319.363C412.795 312.876 412.008 308.323 410.435 305.703C408.862 303.083 406.405 301.773 403.065 301.773C400.778 301.773 398.968 302.513 397.635 303.993C396.302 305.466 395.445 308.016 395.065 311.643L394.775 313.213C394.582 317.313 393.582 320.316 391.775 322.223C389.962 324.13 387.722 325.083 385.055 325.083C382.575 325.083 380.525 324.32 378.905 322.793C377.285 321.266 376.475 319.216 376.475 316.643C376.475 312.736 377.832 309.446 380.545 306.773C383.265 304.106 386.865 302.106 391.345 300.773C395.825 299.44 400.685 298.773 405.925 298.773C414.412 298.773 420.968 300.846 425.595 304.993C430.215 309.14 432.525 315.883 432.525 325.223V356.823C432.525 361.116 434.528 363.263 438.535 363.263H441.675L442.965 364.403C441.152 366.69 439.175 368.453 437.035 369.693C434.888 370.933 431.862 371.553 427.955 371.553C423.755 371.553 420.442 370.576 418.015 368.623C415.582 366.67 413.985 364.073 413.225 360.833C410.365 363.88 407.432 366.476 404.425 368.623C401.425 370.77 397.542 371.843 392.775 371.843ZM401.495 363.123C403.402 363.123 405.188 362.67 406.855 361.763C408.528 360.856 410.508 359.45 412.795 357.543V333.513L409.935 334.093C408.982 334.28 407.885 334.47 406.645 334.663C402.258 335.803 398.755 337.733 396.135 340.453C393.515 343.173 392.205 346.82 392.205 351.393C392.205 355.3 393.108 358.23 394.915 360.183C396.728 362.143 398.922 363.123 401.495 363.123Z" fill="white"/>
<path d="M477.425 369.693V368.263L480.285 367.123C482.192 366.456 483.455 365.55 484.075 364.403C484.695 363.263 485.005 361.786 485.005 359.973V285.183C485.005 283.276 484.695 281.75 484.075 280.603C483.455 279.463 482.192 278.56 480.285 277.893L477.425 276.743V275.313H513.755V276.743L511.315 277.743C509.508 278.416 508.272 279.3 507.605 280.393C506.938 281.486 506.605 282.986 506.605 284.893V319.643H540.775V284.893C540.775 282.986 540.465 281.486 539.845 280.393C539.225 279.3 537.962 278.416 536.055 277.743L533.485 276.743V275.313H569.945V276.743L567.085 277.893C565.278 278.56 564.042 279.463 563.375 280.603C562.708 281.75 562.375 283.276 562.375 285.183V359.973C562.375 361.786 562.708 363.263 563.375 364.403C564.042 365.55 565.278 366.456 567.085 367.123L569.945 368.263V369.693H533.485V368.263L536.055 367.413C537.962 366.646 539.225 365.716 539.845 364.623C540.465 363.523 540.775 362.02 540.775 360.113V322.503H506.605V360.113C506.605 363.64 508.175 366.073 511.315 367.413L513.755 368.263V369.693H477.425Z" fill="white"/>
<path d="M608.415 371.843C601.168 371.843 594.878 370.34 589.545 367.333C584.205 364.333 580.082 360.07 577.175 354.543C574.262 349.01 572.805 342.526 572.805 335.093C572.805 327.653 574.355 321.216 577.455 315.783C580.555 310.35 584.798 306.156 590.185 303.203C595.572 300.25 601.648 298.773 608.415 298.773C615.182 298.773 621.235 300.226 626.575 303.133C631.915 306.04 636.135 310.21 639.235 315.643C642.335 321.076 643.885 327.56 643.885 335.093C643.885 342.62 642.428 349.126 639.515 354.613C636.608 360.093 632.512 364.333 627.225 367.333C621.932 370.34 615.662 371.843 608.415 371.843ZM608.415 368.983C611.755 368.983 614.425 368.03 616.425 366.123C618.425 364.216 619.878 360.833 620.785 355.973C621.692 351.106 622.145 344.24 622.145 335.373C622.145 326.413 621.692 319.503 620.785 314.643C619.878 309.783 618.425 306.4 616.425 304.493C614.425 302.586 611.755 301.633 608.415 301.633C605.082 301.633 602.388 302.586 600.335 304.493C598.288 306.4 596.812 309.783 595.905 314.643C594.998 319.503 594.545 326.413 594.545 335.373C594.545 344.24 594.998 351.106 595.905 355.973C596.812 360.833 598.288 364.216 600.335 366.123C602.388 368.03 605.082 368.983 608.415 368.983Z" fill="white"/>
<path d="M676.775 371.843C670.668 371.843 665.925 370.316 662.545 367.263C659.158 364.216 657.465 359.356 657.465 352.683V303.773H647.595V302.343L651.035 301.773C653.988 301.106 656.538 300.153 658.685 298.913C660.825 297.673 662.945 296.003 665.045 293.903L676.775 280.893H678.205L677.775 300.913H693.785V303.773H677.625V355.253C677.625 358.593 678.365 361.12 679.845 362.833C681.325 364.546 683.208 365.403 685.495 365.403C687.495 365.403 689.258 364.903 690.785 363.903C692.312 362.903 693.838 361.546 695.365 359.833L696.795 361.263C694.888 364.503 692.265 367.076 688.925 368.983C685.592 370.89 681.542 371.843 676.775 371.843Z" fill="white"/>
<path d="M736.685 298.773C742.885 298.773 748.178 300.036 752.565 302.563C756.945 305.083 760.305 308.513 762.645 312.853C764.978 317.193 766.145 322.126 766.145 327.653C766.145 328.7 766.098 329.773 766.005 330.873C765.905 331.966 765.715 332.943 765.435 333.803H722.815C722.908 344.096 724.745 351.51 728.325 356.043C731.898 360.57 737.212 362.833 744.265 362.833C749.032 362.833 752.892 362.07 755.845 360.543C758.805 359.016 761.572 356.776 764.145 353.823L765.575 355.113C762.622 360.353 758.688 364.453 753.775 367.413C748.868 370.366 742.982 371.843 736.115 371.843C729.348 371.843 723.342 370.39 718.095 367.483C712.855 364.576 708.755 360.403 705.795 354.963C702.842 349.53 701.365 343.05 701.365 335.523C701.365 327.703 703.082 321.053 706.515 315.573C709.948 310.093 714.358 305.923 719.745 303.063C725.132 300.203 730.778 298.773 736.685 298.773ZM736.255 301.633C733.495 301.633 731.135 302.466 729.175 304.133C727.222 305.8 725.698 308.753 724.605 312.993C723.505 317.24 722.908 323.223 722.815 330.943H747.265C748.218 320.55 747.838 313.066 746.125 308.493C744.412 303.92 741.122 301.633 736.255 301.633Z" fill="white"/>
<path d="M771.435 369.693V368.263L773.155 367.693C776.588 366.553 778.305 364.17 778.305 360.543V284.043C778.305 282.136 777.922 280.683 777.155 279.683C776.395 278.676 775.062 277.936 773.155 277.463L771.295 277.033V275.603L797.465 269.453L799.175 270.743L798.605 290.763V339.663C798.605 343.19 798.628 346.693 798.675 350.173C798.722 353.653 798.745 357.11 798.745 360.543C798.745 362.45 799.128 364 799.895 365.193C800.655 366.386 801.942 367.266 803.755 367.833L805.615 368.263V369.693H771.435Z" fill="white"/>
</g>
<defs>
<clipPath id="clip0_1_79">
<rect width="808" height="378" fill="white"/>
</clipPath>
</defs>
</svg>
